<svg width="40" height="34" viewBox="0 0 40 34" fill="none" xmlns="http://www.w3.org/2000/svg">
<path d="M25.9712 2.98443V31.6806C25.9712 33.6787 23.4358 34.738 21.8317 33.4102L12.8921 26.014C12.6189 25.7884 12.2663 25.6639 11.901 25.664H4.57738C3.98935 25.664 3.40708 25.5562 2.86381 25.3468C2.32055 25.1374 1.82692 24.8305 1.41112 24.4436C0.995319 24.0567 0.665489 23.5973 0.44046 23.0918C0.21543 22.5863 0.0996094 22.0445 0.0996094 21.4973V13.1677C0.100137 12.063 0.572134 11.0036 1.41182 10.2226C2.25151 9.44165 3.39015 9.00292 4.57738 9.00292H11.901C12.2665 9.00251 12.6192 8.87732 12.8921 8.65107L21.8298 1.25666C23.4358 -0.0711154 25.9712 0.98814 25.9712 2.98443ZM33.9158 6.03627C34.2338 5.81701 34.6324 5.72428 35.0239 5.77845C35.4154 5.83263 35.7677 6.02928 36.0034 6.32515C38.5414 9.51069 39.9086 13.3726 39.9021 17.3381C39.9076 21.3032 38.5398 25.1643 36.0014 28.3491C35.7633 28.6388 35.4123 28.8296 35.0242 28.8805C34.6361 28.9314 34.2421 28.8382 33.9273 28.6211C33.6124 28.404 33.4019 28.0803 33.3413 27.72C33.2807 27.3597 33.3748 26.9917 33.6033 26.6954C35.7605 23.9891 36.9225 20.7076 36.9169 17.3381C36.9229 13.9679 35.7609 10.6857 33.6033 7.97885C33.4864 7.83215 33.4018 7.66545 33.3543 7.48827C33.3067 7.3111 33.2972 7.12694 33.3262 6.94634C33.3552 6.76573 33.4222 6.59222 33.5234 6.43574C33.6245 6.27926 33.7579 6.14474 33.9158 6.03627ZM30.236 10.614C30.4084 10.527 30.5975 10.4725 30.7925 10.4535C30.9875 10.4346 31.1846 10.4515 31.3725 10.5035C31.5605 10.5554 31.7356 10.6413 31.8879 10.7562C32.0401 10.8712 32.1666 11.0129 32.26 11.1733C33.3267 13.0066 33.9317 15.1085 33.9317 17.3381C33.9327 19.4896 33.3582 21.6076 32.26 23.501C32.1667 23.6615 32.0403 23.8033 31.8881 23.9184C31.7359 24.0335 31.5608 24.1195 31.3729 24.1716C31.1849 24.2237 30.9878 24.2409 30.7928 24.2221C30.5977 24.2033 30.4085 24.1489 30.236 24.0621C30.0635 23.9753 29.9111 23.8577 29.7875 23.7161C29.6638 23.5745 29.5713 23.4115 29.5154 23.2367C29.4594 23.0618 29.4409 22.8783 29.4611 22.6968C29.4813 22.5153 29.5397 22.3393 29.633 22.1788C30.4957 20.6916 30.947 19.0281 30.9465 17.3381C30.9465 15.5825 30.4689 13.9344 29.633 12.4955C29.445 12.1716 29.4029 11.7914 29.516 11.4386C29.6291 11.0858 29.8881 10.7892 30.236 10.614Z" fill="#FAFAFA"/>
</svg>
