<svg width="20" height="21" viewBox="0 0 20 21" fill="none" xmlns="http://www.w3.org/2000/svg">
<path d="M1.11111 11.8484H7.77778C8.07246 11.8484 8.35508 11.7314 8.56345 11.523C8.77183 11.3146 8.88889 11.032 8.88889 10.7373V1.84842C8.88889 1.55373 8.77183 1.27112 8.56345 1.06274C8.35508 0.854368 8.07246 0.737305 7.77778 0.737305H1.11111C0.816426 0.737305 0.533811 0.854368 0.325437 1.06274C0.117063 1.27112 0 1.55373 0 1.84842V10.7373C0 11.032 0.117063 11.3146 0.325437 11.523C0.533811 11.7314 0.816426 11.8484 1.11111 11.8484ZM0 19.6262C0 19.9209 0.117063 20.2035 0.325437 20.4119C0.533811 20.6202 0.816426 20.7373 1.11111 20.7373H7.77778C8.07246 20.7373 8.35508 20.6202 8.56345 20.4119C8.77183 20.2035 8.88889 19.9209 8.88889 19.6262V15.1817C8.88889 14.8871 8.77183 14.6044 8.56345 14.3961C8.35508 14.1877 8.07246 14.0706 7.77778 14.0706H1.11111C0.816426 14.0706 0.533811 14.1877 0.325437 14.3961C0.117063 14.6044 0 14.8871 0 15.1817V19.6262ZM11.1111 19.6262C11.1111 19.9209 11.2282 20.2035 11.4365 20.4119C11.6449 20.6202 11.9275 20.7373 12.2222 20.7373H18.8889C19.1836 20.7373 19.4662 20.6202 19.6746 20.4119C19.8829 20.2035 20 19.9209 20 19.6262V11.8484C20 11.5537 19.8829 11.2711 19.6746 11.0627C19.4662 10.8544 19.1836 10.7373 18.8889 10.7373H12.2222C11.9275 10.7373 11.6449 10.8544 11.4365 11.0627C11.2282 11.2711 11.1111 11.5537 11.1111 11.8484V19.6262ZM12.2222 8.51508H18.8889C19.1836 8.51508 19.4662 8.39802 19.6746 8.18965C19.8829 7.98127 20 7.69866 20 7.40397V1.84842C20 1.55373 19.8829 1.27112 19.6746 1.06274C19.4662 0.854368 19.1836 0.737305 18.8889 0.737305H12.2222C11.9275 0.737305 11.6449 0.854368 11.4365 1.06274C11.2282 1.27112 11.1111 1.55373 11.1111 1.84842V7.40397C11.1111 7.69866 11.2282 7.98127 11.4365 8.18965C11.6449 8.39802 11.9275 8.51508 12.2222 8.51508Z" fill="#243950"/>
</svg>
