<svg width="20" height="21" viewBox="0 0 20 21" fill="none" xmlns="http://www.w3.org/2000/svg">
<path d="M1.11111 11.5877H7.77778C8.07246 11.5877 8.35508 11.4706 8.56345 11.2622C8.77183 11.0539 8.88889 10.7712 8.88889 10.4766V1.58767C8.88889 1.29299 8.77183 1.01037 8.56345 0.801999C8.35508 0.593626 8.07246 0.476563 7.77778 0.476562H1.11111C0.816426 0.476563 0.533811 0.593626 0.325437 0.801999C0.117063 1.01037 0 1.29299 0 1.58767V10.4766C0 10.7712 0.117063 11.0539 0.325437 11.2622C0.533811 11.4706 0.816426 11.5877 1.11111 11.5877ZM0 19.3655C0 19.6601 0.117063 19.9428 0.325437 20.1511C0.533811 20.3595 0.816426 20.4766 1.11111 20.4766H7.77778C8.07246 20.4766 8.35508 20.3595 8.56345 20.1511C8.77183 19.9428 8.88889 19.6601 8.88889 19.3655V14.921C8.88889 14.6263 8.77183 14.3437 8.56345 14.1353C8.35508 13.927 8.07246 13.8099 7.77778 13.8099H1.11111C0.816426 13.8099 0.533811 13.927 0.325437 14.1353C0.117063 14.3437 0 14.6263 0 14.921V19.3655ZM11.1111 19.3655C11.1111 19.6601 11.2282 19.9428 11.4365 20.1511C11.6449 20.3595 11.9275 20.4766 12.2222 20.4766H18.8889C19.1836 20.4766 19.4662 20.3595 19.6746 20.1511C19.8829 19.9428 20 19.6601 20 19.3655V11.5877C20 11.293 19.8829 11.0104 19.6746 10.802C19.4662 10.5936 19.1836 10.4766 18.8889 10.4766H12.2222C11.9275 10.4766 11.6449 10.5936 11.4365 10.802C11.2282 11.0104 11.1111 11.293 11.1111 11.5877V19.3655ZM12.2222 8.25434H18.8889C19.1836 8.25434 19.4662 8.13728 19.6746 7.9289C19.8829 7.72053 20 7.43791 20 7.14323V1.58767C20 1.29299 19.8829 1.01037 19.6746 0.801999C19.4662 0.593626 19.1836 0.476563 18.8889 0.476562H12.2222C11.9275 0.476563 11.6449 0.593626 11.4365 0.801999C11.2282 1.01037 11.1111 1.29299 11.1111 1.58767V7.14323C11.1111 7.43791 11.2282 7.72053 11.4365 7.9289C11.6449 8.13728 11.9275 8.25434 12.2222 8.25434Z" fill="#FAFAFA"/>
</svg>
