<svg width="17" height="12" viewBox="0 0 17 12" fill="none" xmlns="http://www.w3.org/2000/svg">
<path d="M0.5 1.2C0.5 0.88174 0.626428 0.576515 0.851472 0.351472C1.07652 0.126428 1.38174 0 1.7 0H15.3C15.6183 6.70682e-09 15.9235 0.126428 16.1485 0.351472C16.3736 0.576515 16.5 0.88174 16.5 1.2C16.5 1.51826 16.3736 1.82348 16.1485 2.04853C15.9235 2.27357 15.6183 2.4 15.3 2.4H1.7C1.38174 2.4 1.07652 2.27357 0.851472 2.04853C0.626428 1.82348 0.5 1.51826 0.5 1.2ZM3.7 6C3.7 5.68174 3.82643 5.37652 4.05147 5.15147C4.27652 4.92643 4.58174 4.8 4.9 4.8H12.1C12.4183 4.8 12.7235 4.92643 12.9485 5.15147C13.1736 5.37652 13.3 5.68174 13.3 6C13.3 6.31826 13.1736 6.62348 12.9485 6.84853C12.7235 7.07357 12.4183 7.2 12.1 7.2H4.9C4.58174 7.2 4.27652 7.07357 4.05147 6.84853C3.82643 6.62348 3.7 6.31826 3.7 6ZM7.3 9.6C6.98174 9.6 6.67652 9.72643 6.45147 9.95147C6.22643 10.1765 6.1 10.4817 6.1 10.8C6.1 11.1183 6.22643 11.4235 6.45147 11.6485C6.67652 11.8736 6.98174 12 7.3 12H9.7C10.0183 12 10.3235 11.8736 10.5485 11.6485C10.7736 11.4235 10.9 11.1183 10.9 10.8C10.9 10.4817 10.7736 10.1765 10.5485 9.95147C10.3235 9.72643 10.0183 9.6 9.7 9.6H7.3Z" fill="#FAFAFA"/>
</svg>
