<svg width="20" height="26" viewBox="0 0 20 26" fill="none" xmlns="http://www.w3.org/2000/svg">
<path d="M0 13C0 13.3315 0.131696 13.6495 0.366117 13.8839C0.600537 14.1183 0.918479 14.25 1.25 14.25H10.7375L7.8625 17.1125C7.74534 17.2287 7.65235 17.367 7.58889 17.5193C7.52543 17.6716 7.49275 17.835 7.49275 18C7.49275 18.165 7.52543 18.3284 7.58889 18.4807C7.65235 18.633 7.74534 18.7713 7.8625 18.8875C7.9787 19.0047 8.11696 19.0977 8.26928 19.1611C8.4216 19.2246 8.58498 19.2572 8.75 19.2572C8.91502 19.2572 9.0784 19.2246 9.23072 19.1611C9.38304 19.0977 9.5213 19.0047 9.6375 18.8875L14.6375 13.8875C14.7513 13.7686 14.8405 13.6284 14.9 13.475C15.025 13.1707 15.025 12.8293 14.9 12.525C14.8405 12.3716 14.7513 12.2314 14.6375 12.1125L9.6375 7.1125C9.52095 6.99595 9.38259 6.9035 9.23031 6.84043C9.07803 6.77735 8.91482 6.74489 8.75 6.74489C8.58518 6.74489 8.42197 6.77735 8.26969 6.84043C8.11741 6.9035 7.97905 6.99595 7.8625 7.1125C7.74595 7.22905 7.6535 7.36741 7.59043 7.51969C7.52735 7.67197 7.49489 7.83518 7.49489 8C7.49489 8.16482 7.52735 8.32803 7.59043 8.48031C7.6535 8.63259 7.74595 8.77095 7.8625 8.8875L10.7375 11.75H1.25C0.918479 11.75 0.600537 11.8817 0.366117 12.1161C0.131696 12.3505 0 12.6685 0 13ZM16.25 0.5H3.75C2.75544 0.5 1.80161 0.895088 1.09835 1.59835C0.395088 2.30161 0 3.25544 0 4.25V8C0 8.33152 0.131696 8.64946 0.366117 8.88388C0.600537 9.1183 0.918479 9.25 1.25 9.25C1.58152 9.25 1.89946 9.1183 2.13388 8.88388C2.3683 8.64946 2.5 8.33152 2.5 8V4.25C2.5 3.91848 2.6317 3.60054 2.86612 3.36612C3.10054 3.1317 3.41848 3 3.75 3H16.25C16.5815 3 16.8995 3.1317 17.1339 3.36612C17.3683 3.60054 17.5 3.91848 17.5 4.25V21.75C17.5 22.0815 17.3683 22.3995 17.1339 22.6339C16.8995 22.8683 16.5815 23 16.25 23H3.75C3.41848 23 3.10054 22.8683 2.86612 22.6339C2.6317 22.3995 2.5 22.0815 2.5 21.75V18C2.5 17.6685 2.3683 17.3505 2.13388 17.1161C1.89946 16.8817 1.58152 16.75 1.25 16.75C0.918479 16.75 0.600537 16.8817 0.366117 17.1161C0.131696 17.3505 0 17.6685 0 18V21.75C0 22.7446 0.395088 23.6984 1.09835 24.4017C1.80161 25.1049 2.75544 25.5 3.75 25.5H16.25C17.2446 25.5 18.1984 25.1049 18.9017 24.4017C19.6049 23.6984 20 22.7446 20 21.75V4.25C20 3.25544 19.6049 2.30161 18.9017 1.59835C18.1984 0.895088 17.2446 0.5 16.25 0.5Z" fill="#FAFAFA"/>
</svg>
