<svg width="24" height="20" viewBox="0 0 24 20" fill="none" xmlns="http://www.w3.org/2000/svg">
<path d="M21.407 2.8471L22.5571 2.08333H21.1765H2.35294H0.972293L2.12244 2.8471L11.5342 9.0971L11.7647 9.25017L11.9952 9.0971L21.407 2.8471ZM21.1765 17.9167H21.5931V17.5V5V4.22314L20.946 4.6529L11.7647 10.7498L2.58344 4.6529L1.93627 4.22314V5V17.5V17.9167H2.35294H21.1765ZM21.1765 0.416667C22.217 0.416667 23.1127 1.33096 23.1127 2.5V17.5C23.1127 18.669 22.217 19.5833 21.1765 19.5833H2.35294C1.31238 19.5833 0.416667 18.669 0.416667 17.5V2.5C0.416667 1.33096 1.31238 0.416667 2.35294 0.416667H21.1765Z" fill="#141414" stroke="#141414" stroke-width="0.833333"/>
</svg>
