<svg width="15" height="5" viewBox="0 0 15 5" fill="none" xmlns="http://www.w3.org/2000/svg">
<path d="M13.125 0.626094H9.375L7.2539 0.626194C6.6381 0.626194 7.95083 1.99765 8.5 2.00049C9.5 2.00565 10.4973 0.62207 10 0.62207C9.50272 0.62207 6.99714 0.627078 6.5 0.627078C5.95082 0.627078 5.70312 1.67015 6 1.50049L7.31875 0.626094H1.875C1.37772 0.626094 0.900805 0.823651 0.549175 1.17527C0.197544 1.52688 0 2.00383 0 2.50109C0 2.99835 0.197544 3.47529 0.549175 3.82691C0.900805 4.17853 1.37772 4.37609 1.875 4.37609L5.70312 4.37706H6.48828C5.98828 4.37706 6.65801 4.38121 7.14062 4.37511C7.75903 4.3673 7.00272 4.37609 7.5 4.37609C7.99728 4.37609 7.97656 4.37609 8.47656 4.37609C8.85281 4.37609 8 4.37609 9 4.37609H9.37793H13.125C13.6223 4.37609 14.0992 4.17853 14.4508 3.82691C14.8025 3.47529 15 2.99835 15 2.50109C15 2.00383 14.8025 1.52688 14.4508 1.17527C14.0992 0.823651 13.6223 0.626094 13.125 0.626094Z" fill="#FAFAFA"/>
</svg>
