<svg width="34" height="34" viewBox="0 0 34 34" fill="none" xmlns="http://www.w3.org/2000/svg">
<path d="M33.3919 26.1893L24.5335 17.3319L33.389 8.4755C33.4763 8.38827 33.5455 8.28471 33.5927 8.17073C33.6399 8.05675 33.6642 7.93459 33.6642 7.81122C33.6642 7.68785 33.6399 7.56569 33.5927 7.45171C33.5455 7.33774 33.4763 7.23417 33.389 7.14694L27.1855 0.94196C27.0092 0.765743 26.7702 0.666748 26.521 0.666748C26.2717 0.666748 26.0327 0.765743 25.8564 0.94196L16.9995 9.7984L8.14404 0.94196C7.79171 0.589157 7.16781 0.589157 6.81501 0.94196L0.610028 7.146C0.434042 7.32237 0.335206 7.56136 0.335206 7.81051C0.335206 8.05967 0.434042 8.29865 0.610028 8.47503L9.46693 17.3319L0.608611 26.1898C0.43274 26.3662 0.333984 26.6052 0.333984 26.8543C0.333984 27.1034 0.43274 27.3424 0.608611 27.5188L6.81265 33.7233C6.89986 33.8107 7.00344 33.88 7.11746 33.9273C7.23149 33.9746 7.35372 33.9989 7.47716 33.9989C7.60061 33.9989 7.72284 33.9746 7.83687 33.9273C7.95089 33.88 8.05447 33.8107 8.14168 33.7233L16.9995 24.8655L25.8579 33.7229C26.0416 33.9061 26.281 33.9982 26.5224 33.9982C26.7637 33.9982 27.0036 33.9061 27.1874 33.7229L33.3923 27.5183C33.5685 27.342 33.6674 27.103 33.6673 26.8537C33.6672 26.6045 33.5681 26.3655 33.3919 26.1893Z" fill="#FAFAFA"/>
</svg>
