<svg width="18" height="20" viewBox="0 0 18 20" fill="none" xmlns="http://www.w3.org/2000/svg">
<path fill-rule="evenodd" clip-rule="evenodd" d="M1.93816 7.36938C1.93813 6.34999 2.139 5.34168 2.52808 4.4082C2.91715 3.47472 3.48597 2.63637 4.19856 1.94616C4.91116 1.25594 5.75203 0.72888 6.66802 0.398286C7.58401 0.0676926 8.55519 -0.0592396 9.52016 0.0255152C9.65256 0.0347085 9.7819 0.0715491 9.90064 0.13389C10.0194 0.196231 10.1252 0.282826 10.2118 0.388629C10.2984 0.494432 10.3642 0.617328 10.4053 0.750155C10.4463 0.882983 10.4619 1.02309 10.451 1.1623C10.4401 1.30152 10.403 1.43706 10.3419 1.56103C10.2807 1.68501 10.1968 1.79493 10.0949 1.8844C9.99297 1.97387 9.87518 2.0411 9.74835 2.08217C9.62153 2.12324 9.48821 2.13733 9.35616 2.12361C8.6667 2.06272 7.97274 2.15313 7.31818 2.38912C6.66362 2.6251 6.06271 3.00154 5.55345 3.4946C5.0442 3.98766 4.6377 4.58662 4.35966 5.25359C4.08162 5.92055 3.93809 6.64101 3.93816 7.36938V11.0834C3.93813 11.5739 3.8296 12.0576 3.62116 12.4962L2.55616 14.7385H15.3202L14.2552 12.4962C14.0468 12.0575 13.9382 11.5739 13.9382 11.0834V9.47484C13.9382 9.19564 14.0435 8.92787 14.2311 8.73045C14.4186 8.53302 14.6729 8.42211 14.9382 8.42211C15.2034 8.42211 15.4577 8.53302 15.6453 8.73045C15.8328 8.92787 15.9382 9.19564 15.9382 9.47484V11.0834C15.938 11.2467 15.974 11.4078 16.0432 11.554L17.7602 15.168C17.844 15.3446 17.8836 15.5408 17.8752 15.738C17.8668 15.9352 17.8106 16.1269 17.712 16.2948C17.6134 16.4627 17.4757 16.6013 17.3119 16.6974C17.1481 16.7936 16.9637 16.844 16.7762 16.844H12.8122C12.5897 17.7475 12.0886 18.5476 11.3874 19.1188C10.6863 19.6901 9.82476 20 8.93816 20C8.05157 20 7.19007 19.6901 6.4889 19.1188C5.78773 18.5476 5.2866 17.7475 5.06416 16.844H1.10016C0.912641 16.844 0.728224 16.7936 0.56443 16.6974C0.400635 16.6013 0.262901 16.4627 0.164308 16.2948C0.0657151 16.1269 0.00953771 15.9352 0.00111129 15.738C-0.00731514 15.5408 0.0322892 15.3446 0.116163 15.168L1.83216 11.554C1.90171 11.4079 1.938 11.2468 1.93816 11.0834V7.36938ZM7.20616 16.844C7.38171 17.164 7.63418 17.4298 7.93821 17.6146C8.24223 17.7993 8.58711 17.8966 8.93816 17.8966C9.28922 17.8966 9.63409 17.7993 9.93812 17.6146C10.2421 17.4298 10.4946 17.164 10.6702 16.844H7.20616ZM14.4382 2.10571C14.2412 2.10571 14.0461 2.14656 13.8641 2.22592C13.6821 2.30527 13.5168 2.42159 13.3775 2.56822C13.2382 2.71485 13.1277 2.88893 13.0523 3.08052C12.977 3.2721 12.9382 3.47744 12.9382 3.68481C12.9382 3.89218 12.977 4.09752 13.0523 4.28911C13.1277 4.48069 13.2382 4.65477 13.3775 4.8014C13.5168 4.94804 13.6821 5.06435 13.8641 5.14371C14.0461 5.22307 14.2412 5.26391 14.4382 5.26391C14.836 5.26391 15.2175 5.09754 15.4988 4.8014C15.7801 4.50527 15.9382 4.10362 15.9382 3.68481C15.9382 3.26601 15.7801 2.86436 15.4988 2.56822C15.2175 2.27208 14.836 2.10571 14.4382 2.10571ZM10.9382 3.68481C10.9382 2.70761 11.3069 1.77042 11.9633 1.07943C12.6197 0.388444 13.5099 0.000249722 14.4382 0.000249722C15.3664 0.000249722 16.2567 0.388444 16.913 1.07943C17.5694 1.77042 17.9382 2.70761 17.9382 3.68481C17.9382 4.66202 17.5694 5.5992 16.913 6.29019C16.2567 6.98118 15.3664 7.36938 14.4382 7.36938C13.5099 7.36938 12.6197 6.98118 11.9633 6.29019C11.3069 5.5992 10.9382 4.66202 10.9382 3.68481Z" fill="#243950"/>
</svg>
