<svg width="30" height="31" viewBox="0 0 30 31" fill="none" xmlns="http://www.w3.org/2000/svg">
<path d="M14.9624 28C21.866 28 27.4624 22.4036 27.4624 15.5C27.4624 8.59644 21.866 3 14.9624 3C8.05884 3 2.4624 8.59644 2.4624 15.5C2.4624 22.4036 8.05884 28 14.9624 28Z" stroke="#FAFAFA" stroke-width="1.5" stroke-linecap="round" stroke-linejoin="round"/>
<path d="M13.4 18.6625V12.3375C13.4 11.7375 13.15 11.5 12.5125 11.5H10.8875C10.25 11.5 10 11.7375 10 12.3375V18.6625C10 19.2625 10.25 19.5 10.8875 19.5H12.5C13.15 19.5 13.4 19.2625 13.4 18.6625Z" stroke="#FAFAFA" stroke-width="1.5" stroke-linecap="round" stroke-linejoin="round"/>
<path d="M19.9998 18.6625V12.3375C19.9998 11.7375 19.7498 11.5 19.1123 11.5H17.4998C16.8623 11.5 16.6123 11.7375 16.6123 12.3375V18.6625C16.6123 19.2625 16.8623 19.5 17.4998 19.5H19.1123C19.7498 19.5 19.9998 19.2625 19.9998 18.6625Z" stroke="#FAFAFA" stroke-width="1.5" stroke-linecap="round" stroke-linejoin="round"/>
</svg>
