<svg width="15" height="15" viewBox="0 0 15 15" fill="none" xmlns="http://www.w3.org/2000/svg">
<path d="M13.125 5.625H9.375V1.875C9.375 1.37772 9.17746 0.900805 8.82582 0.549175C8.47419 0.197544 7.99728 0 7.5 0C7.00272 0 6.52581 0.197544 6.17418 0.549175C5.82254 0.900805 5.625 1.37772 5.625 1.875L5.69156 5.625H1.875C1.37772 5.625 0.900805 5.82254 0.549175 6.17418C0.197544 6.52581 0 7.00272 0 7.5C0 7.99728 0.197544 8.47419 0.549175 8.82582C0.900805 9.17746 1.37772 9.375 1.875 9.375L5.69156 9.30844L5.625 13.125C5.625 13.6223 5.82254 14.0992 6.17418 14.4508C6.52581 14.8025 7.00272 15 7.5 15C7.99728 15 8.47419 14.8025 8.82582 14.4508C9.17746 14.0992 9.375 13.6223 9.375 13.125V9.30844L13.125 9.375C13.6223 9.375 14.0992 9.17746 14.4508 8.82582C14.8025 8.47419 15 7.99728 15 7.5C15 7.00272 14.8025 6.52581 14.4508 6.17418C14.0992 5.82254 13.6223 5.625 13.125 5.625Z" fill="#FAFAFA"/>
</svg>
