<svg width="24" height="24" viewBox="0 0 24 24" fill="none" xmlns="http://www.w3.org/2000/svg">
<mask id="path-1-inside-1_2317_19730" fill="white">
<path d="M17.232 14.4C17.328 13.608 17.4 12.816 17.4 12C17.4 11.184 17.328 10.392 17.232 9.6H21.288C21.48 10.368 21.6 11.172 21.6 12C21.6 12.828 21.48 13.632 21.288 14.4M15.108 21.072C15.828 19.74 16.38 18.3 16.764 16.8H20.304C19.1414 18.8019 17.2969 20.3184 15.108 21.072ZM14.808 14.4H9.192C9.072 13.608 9 12.816 9 12C9 11.184 9.072 10.38 9.192 9.6H14.808C14.916 10.38 15 11.184 15 12C15 12.816 14.916 13.608 14.808 14.4ZM12 21.552C11.004 20.112 10.2 18.516 9.708 16.8H14.292C13.8 18.516 12.996 20.112 12 21.552ZM7.2 7.2H3.696C4.84637 5.19244 6.68959 3.67349 8.88 2.928C8.16 4.26 7.62 5.7 7.2 7.2ZM3.696 16.8H7.2C7.62 18.3 8.16 19.74 8.88 21.072C6.69392 20.3188 4.85315 18.8018 3.696 16.8ZM2.712 14.4C2.52 13.632 2.4 12.828 2.4 12C2.4 11.172 2.52 10.368 2.712 9.6H6.768C6.672 10.392 6.6 11.184 6.6 12C6.6 12.816 6.672 13.608 6.768 14.4M12 2.436C12.996 3.876 13.8 5.484 14.292 7.2H9.708C10.2 5.484 11.004 3.876 12 2.436ZM20.304 7.2H16.764C16.3879 5.71393 15.8317 4.27933 15.108 2.928C17.316 3.684 19.152 5.208 20.304 7.2ZM12 0C5.364 0 0 5.4 0 12C0 15.1826 1.26428 18.2348 3.51472 20.4853C4.62902 21.5996 5.95189 22.4835 7.4078 23.0866C8.86371 23.6896 10.4241 24 12 24C15.1826 24 18.2348 22.7357 20.4853 20.4853C22.7357 18.2348 24 15.1826 24 12C24 10.4241 23.6896 8.86371 23.0866 7.4078C22.4835 5.95189 21.5996 4.62902 20.4853 3.51472C19.371 2.40042 18.0481 1.5165 16.5922 0.913446C15.1363 0.310389 13.5759 0 12 0Z"/>
</mask>
<path d="M17.232 14.4C17.328 13.608 17.4 12.816 17.4 12C17.4 11.184 17.328 10.392 17.232 9.6H21.288C21.48 10.368 21.6 11.172 21.6 12C21.6 12.828 21.48 13.632 21.288 14.4M15.108 21.072C15.828 19.74 16.38 18.3 16.764 16.8H20.304C19.1414 18.8019 17.2969 20.3184 15.108 21.072ZM14.808 14.4H9.192C9.072 13.608 9 12.816 9 12C9 11.184 9.072 10.38 9.192 9.6H14.808C14.916 10.38 15 11.184 15 12C15 12.816 14.916 13.608 14.808 14.4ZM12 21.552C11.004 20.112 10.2 18.516 9.708 16.8H14.292C13.8 18.516 12.996 20.112 12 21.552ZM7.2 7.2H3.696C4.84637 5.19244 6.68959 3.67349 8.88 2.928C8.16 4.26 7.62 5.7 7.2 7.2ZM3.696 16.8H7.2C7.62 18.3 8.16 19.74 8.88 21.072C6.69392 20.3188 4.85315 18.8018 3.696 16.8ZM2.712 14.4C2.52 13.632 2.4 12.828 2.4 12C2.4 11.172 2.52 10.368 2.712 9.6H6.768C6.672 10.392 6.6 11.184 6.6 12C6.6 12.816 6.672 13.608 6.768 14.4M12 2.436C12.996 3.876 13.8 5.484 14.292 7.2H9.708C10.2 5.484 11.004 3.876 12 2.436ZM20.304 7.2H16.764C16.3879 5.71393 15.8317 4.27933 15.108 2.928C17.316 3.684 19.152 5.208 20.304 7.2ZM12 0C5.364 0 0 5.4 0 12C0 15.1826 1.26428 18.2348 3.51472 20.4853C4.62902 21.5996 5.95189 22.4835 7.4078 23.0866C8.86371 23.6896 10.4241 24 12 24C15.1826 24 18.2348 22.7357 20.4853 20.4853C22.7357 18.2348 24 15.1826 24 12C24 10.4241 23.6896 8.86371 23.0866 7.4078C22.4835 5.95189 21.5996 4.62902 20.4853 3.51472C19.371 2.40042 18.0481 1.5165 16.5922 0.913446C15.1363 0.310389 13.5759 0 12 0Z" fill="#2F4E6E"/>
<path d="M17.232 9.6V8.76667H16.2916L16.4047 9.70028L17.232 9.6ZM21.288 9.6L22.0965 9.39789L21.9386 8.76667H21.288V9.6ZM15.108 21.072L14.3749 20.6757L13.3588 22.5555L15.3793 21.8599L15.108 21.072ZM16.764 16.8V15.9667H16.1171L15.9567 16.5933L16.764 16.8ZM20.304 16.8L21.0246 17.2185L21.7516 15.9667H20.304V16.8ZM14.808 14.4V15.2333H15.5354L15.6337 14.5126L14.808 14.4ZM9.192 14.4L8.36807 14.5248L8.47542 15.2333H9.192V14.4ZM9.192 9.6V8.76667H8.47707L8.36836 9.47329L9.192 9.6ZM14.808 9.6L15.6335 9.48571L15.5339 8.76667H14.808V9.6ZM12 21.552L11.3146 22.026L12 23.0169L12.6854 22.026L12 21.552ZM9.708 16.8V15.9667H8.60216L8.90694 17.0297L9.708 16.8ZM14.292 16.8L15.0931 17.0297L15.3978 15.9667H14.292V16.8ZM7.2 7.2V8.03333H7.83205L8.00247 7.42469L7.2 7.2ZM3.696 7.2L2.97296 6.78568L2.25803 8.03333H3.696V7.2ZM8.88 2.928L9.61309 3.32426L10.6239 1.45419L8.61151 2.13911L8.88 2.928ZM3.696 16.8V15.9667H2.25176L2.97453 17.217L3.696 16.8ZM7.2 16.8L8.00247 16.5753L7.83205 15.9667H7.2V16.8ZM8.88 21.072L8.60853 21.8599L10.6296 22.5563L9.61309 20.6757L8.88 21.072ZM2.712 9.6V8.76667H2.06135L1.90355 9.39789L2.712 9.6ZM6.768 9.6L7.59528 9.70028L7.70844 8.76667H6.768V9.6ZM12 2.436L12.6854 1.96196L12 0.971066L11.3146 1.96196L12 2.436ZM14.292 7.2V8.03333H15.3978L15.0931 6.97033L14.292 7.2ZM9.708 7.2L8.90694 6.97033L8.60216 8.03333H9.708V7.2ZM20.304 7.2V8.03333H21.7486L21.0254 6.78281L20.304 7.2ZM16.764 7.2L15.9561 7.40448L16.1153 8.03333H16.764V7.2ZM15.108 2.928L15.3779 2.1396L13.3727 1.45302L14.3734 3.32144L15.108 2.928ZM12 0V-0.833333V0ZM12 24L12 24.8333L12 24ZM18.0593 14.5003C18.1571 13.6933 18.2333 12.8639 18.2333 12H16.5667C16.5667 12.7681 16.4989 13.5227 16.4047 14.2997L18.0593 14.5003ZM18.2333 12C18.2333 11.1361 18.1571 10.3067 18.0593 9.49972L16.4047 9.70028C16.4989 10.4773 16.5667 11.2319 16.5667 12H18.2333ZM17.232 10.4333H21.288V8.76667H17.232V10.4333ZM20.4795 9.80211C20.6583 10.5171 20.7667 11.2524 20.7667 12H22.4333C22.4333 11.0916 22.3017 10.2189 22.0965 9.39789L20.4795 9.80211ZM20.7667 12C20.7667 12.7476 20.6583 13.4829 20.4795 14.1979L22.0965 14.6021C22.3017 13.7811 22.4333 12.9084 22.4333 12H20.7667ZM15.8411 21.4683C16.5957 20.0723 17.1716 18.568 17.5713 17.0067L15.9567 16.5933C15.5884 18.032 15.0603 19.4078 14.3749 20.6757L15.8411 21.4683ZM16.764 17.6333H20.304V15.9667H16.764V17.6333ZM19.5834 16.3815C18.5213 18.2103 16.8364 19.5956 14.8367 20.2841L15.3793 21.8599C17.7575 21.0412 19.7615 19.3936 21.0246 17.2185L19.5834 16.3815ZM14.808 13.5667H9.192V15.2333H14.808V13.5667ZM10.0159 14.2752C9.90091 13.516 9.83333 12.7664 9.83333 12H8.16667C8.16667 12.8656 8.24309 13.7 8.36807 14.5248L10.0159 14.2752ZM9.83333 12C9.83333 11.2327 9.90106 10.4715 10.0156 9.72672L8.36836 9.47329C8.24294 10.2885 8.16667 11.1353 8.16667 12H9.83333ZM9.192 10.4333H14.808V8.76667H9.192V10.4333ZM13.9825 9.71429C14.0882 10.4777 14.1667 11.2389 14.1667 12H15.8333C15.8333 11.1291 15.7438 10.2823 15.6335 9.48571L13.9825 9.71429ZM14.1667 12C14.1667 12.7606 14.0884 13.5095 13.9823 14.2874L15.6337 14.5126C15.7436 13.7065 15.8333 12.8714 15.8333 12H14.1667ZM12.6854 21.078C11.7333 19.7014 10.9726 18.187 10.5091 16.5703L8.90694 17.0297C9.42742 18.845 10.2747 20.5226 11.3146 22.026L12.6854 21.078ZM9.708 17.6333H14.292V15.9667H9.708V17.6333ZM13.4909 16.5703C13.0274 18.187 12.2667 19.7014 11.3146 21.078L12.6854 22.026C13.7253 20.5226 14.5726 18.845 15.0931 17.0297L13.4909 16.5703ZM7.2 6.36667H3.696V8.03333H7.2V6.36667ZM4.41904 7.61432C5.46854 5.78278 7.15015 4.39702 9.14849 3.7169L8.61151 2.13911C6.22904 2.94996 4.2242 4.6021 2.97296 6.78568L4.41904 7.61432ZM8.14691 2.53174C7.3907 3.93073 6.82987 5.43124 6.39753 6.97531L8.00247 7.42469C8.41013 5.96876 8.9293 4.58927 9.61309 3.32426L8.14691 2.53174ZM3.696 17.6333H7.2V15.9667H3.696V17.6333ZM6.39753 17.0247C6.82987 18.5688 7.3907 20.0693 8.14691 21.4683L9.61309 20.6757C8.9293 19.4107 8.41013 18.0312 8.00247 16.5753L6.39753 17.0247ZM9.15147 20.2841C7.15515 19.5963 5.47417 18.211 4.41747 16.383L2.97453 17.217C4.23212 19.3926 6.23269 21.0413 8.60853 21.8599L9.15147 20.2841ZM3.52045 14.1979C3.3417 13.4829 3.23333 12.7476 3.23333 12H1.56667C1.56667 12.9084 1.6983 13.7811 1.90355 14.6021L3.52045 14.1979ZM3.23333 12C3.23333 11.2524 3.3417 10.5171 3.52045 9.80211L1.90355 9.39789C1.6983 10.2189 1.56667 11.0916 1.56667 12H3.23333ZM2.712 10.4333H6.768V8.76667H2.712V10.4333ZM5.94072 9.49972C5.8429 10.3067 5.76667 11.1361 5.76667 12H7.43333C7.43333 11.2319 7.5011 10.4773 7.59528 9.70028L5.94072 9.49972ZM5.76667 12C5.76667 12.8639 5.8429 13.6933 5.94072 14.5003L7.59528 14.2997C7.5011 13.5227 7.43333 12.7681 7.43333 12H5.76667ZM11.3146 2.91004C12.2657 4.28509 13.027 5.8115 13.4909 7.42967L15.0931 6.97033C14.573 5.1565 13.7263 3.46691 12.6854 1.96196L11.3146 2.91004ZM14.292 6.36667H9.708V8.03333H14.292V6.36667ZM10.5091 7.42967C10.973 5.8115 11.7343 4.28509 12.6854 2.91004L11.3146 1.96196C10.2737 3.46691 9.42699 5.1565 8.90694 6.97033L10.5091 7.42967ZM20.304 6.36667H16.764V8.03333H20.304V6.36667ZM17.5719 6.99552C17.1791 5.44372 16.5984 3.94566 15.8426 2.53456L14.3734 3.32144C15.0651 4.613 15.5966 5.98415 15.9561 7.40448L17.5719 6.99552ZM14.8381 3.7164C16.8544 4.40678 18.5307 5.79817 19.5826 7.61719L21.0254 6.78281C19.7733 4.61783 17.7776 2.96122 15.3779 2.1396L14.8381 3.7164ZM12 -0.833333C4.90214 -0.833333 -0.833333 4.94139 -0.833333 12H0.833333C0.833333 5.85861 5.82586 0.833333 12 0.833333V-0.833333ZM-0.833333 12C-0.833333 15.4036 0.518746 18.6678 2.92546 21.0745L4.10397 19.896C2.00982 17.8019 0.833333 14.9616 0.833333 12H-0.833333ZM2.92546 21.0745C4.11715 22.2662 5.53188 23.2115 7.0889 23.8565L7.7267 22.3167C6.3719 21.7555 5.1409 20.9329 4.10397 19.896L2.92546 21.0745ZM7.0889 23.8565C8.64591 24.5014 10.3147 24.8333 12 24.8333L12 23.1667C10.5336 23.1667 9.0815 22.8778 7.7267 22.3167L7.0889 23.8565ZM12 24.8333C15.4036 24.8333 18.6678 23.4813 21.0745 21.0745L19.896 19.896C17.8019 21.9902 14.9616 23.1667 12 23.1667L12 24.8333ZM21.0745 21.0745C23.4813 18.6678 24.8333 15.4036 24.8333 12H23.1667C23.1667 14.9616 21.9902 17.8019 19.896 19.896L21.0745 21.0745ZM24.8333 12C24.8333 10.3147 24.5014 8.64591 23.8565 7.0889L22.3167 7.7267C22.8778 9.0815 23.1667 10.5336 23.1667 12H24.8333ZM23.8565 7.0889C23.2115 5.53188 22.2662 4.11715 21.0745 2.92546L19.896 4.10397C20.9329 5.1409 21.7555 6.3719 22.3167 7.7267L23.8565 7.0889ZM21.0745 2.92546C19.8829 1.73378 18.4681 0.788482 16.9111 0.143546L16.2733 1.68335C17.6281 2.24452 18.8591 3.06705 19.896 4.10397L21.0745 2.92546ZM16.9111 0.143546C15.3541 -0.501389 13.6853 -0.833333 12 -0.833333V0.833333C13.4664 0.833333 14.9185 1.12217 16.2733 1.68335L16.9111 0.143546Z" fill="#141414" mask="url(#path-1-inside-1_2317_19730)"/>
</svg>
