<svg width="18" height="20" viewBox="0 0 18 20" fill="none" xmlns="http://www.w3.org/2000/svg">
<path d="M13 12C14.2885 12.0001 15.5272 12.4975 16.4578 13.3887C17.3884 14.2798 17.9391 15.4958 17.995 16.783L18 17V18C18.0002 18.5046 17.8096 18.9906 17.4665 19.3605C17.1234 19.7305 16.6532 19.9572 16.15 19.995L16 20H2C1.49542 20.0002 1.00943 19.8096 0.639452 19.4665C0.269471 19.1234 0.0428433 18.6532 0.00500011 18.15L0 18V17C7.44425e-05 15.7115 0.497542 14.4728 1.38866 13.5422C2.27978 12.6116 3.49575 12.0609 4.783 12.005L5 12H13ZM9 0C10.3261 0 11.5979 0.526784 12.5355 1.46447C13.4732 2.40215 14 3.67392 14 5C14 6.32608 13.4732 7.59785 12.5355 8.53553C11.5979 9.47322 10.3261 10 9 10C7.67392 10 6.40215 9.47322 5.46447 8.53553C4.52678 7.59785 4 6.32608 4 5C4 3.67392 4.52678 2.40215 5.46447 1.46447C6.40215 0.526784 7.67392 0 9 0Z" fill="#243950"/>
</svg>
